<svg width="332" height="64" viewBox="0 0 332 64" fill="none" xmlns="http://www.w3.org/2000/svg">
<g filter="url(#filter0_d_149_1123)">
<rect x="7" width="318" height="50" rx="10" fill="#2BC155" shape-rendering="crispEdges"/>
<path d="M15.2899 12.4719L34.144 10.007C34.2504 9.99298 34.3588 10.0001 34.462 10.0279C34.5651 10.0556 34.6605 10.1033 34.7417 10.1678C34.823 10.2323 34.8881 10.312 34.9327 10.4015C34.9774 10.491 35.0005 10.5883 35.0005 10.6867V39.3135C35.0004 39.4118 34.9774 39.5089 34.9328 39.5983C34.8883 39.6877 34.8233 39.7674 34.7422 39.8318C34.6612 39.8962 34.566 39.944 34.463 39.9719C34.3601 39.9997 34.2518 40.007 34.1455 39.9932L15.2884 37.5283C14.9309 37.4816 14.6037 37.3185 14.367 37.0687C14.1303 36.819 14 36.4994 14 36.1687V13.8315C14 13.5008 14.1303 13.1812 14.367 12.9315C14.6037 12.6817 14.9309 12.5186 15.2884 12.4719H15.2899ZM17.0013 15.0234V34.9768L32.0006 36.9391V13.0611L17.0013 15.0234ZM36.5004 34.6128H41.0001V15.3874H36.5004V12.6409H42.5001C42.8979 12.6409 43.2794 12.7855 43.5607 13.0431C43.842 13.3006 44 13.6499 44 14.0141V35.9861C44 36.3503 43.842 36.6996 43.5607 36.9571C43.2794 37.2147 42.8979 37.3593 42.5001 37.3593H36.5004V34.6128ZM26.3009 25.0001L30.5007 30.4931H26.9009L24.501 27.3538L22.1011 30.4931H18.5013L22.7011 25.0001L18.5013 19.5071H22.1011L24.501 22.6463L26.9009 19.5071H30.5007L26.3009 25.0001Z" fill="white"/>
<path d="M53.2929 37.7071C53.6834 38.0976 54.3166 38.0976 54.7071 37.7071L61.0711 31.3431C61.4616 30.9526 61.4616 30.3195 61.0711 29.9289C60.6805 29.5384 60.0474 29.5384 59.6569 29.9289L54 35.5858L48.3431 29.9289C47.9526 29.5384 47.3195 29.5384 46.9289 29.9289C46.5384 30.3195 46.5384 30.9526 46.9289 31.3431L53.2929 37.7071ZM53 13L53 37L55 37L55 13L53 13Z" fill="white"/>
<path d="M74.8885 23.0795C74.7938 22.7727 74.6631 22.4981 74.4964 22.2557C74.3336 22.0095 74.1366 21.7992 73.9055 21.625C73.6783 21.4508 73.4169 21.3201 73.1214 21.233C72.826 21.142 72.504 21.0966 72.1555 21.0966C71.5305 21.0966 70.9737 21.2538 70.4851 21.5682C69.9964 21.8826 69.612 22.3447 69.3317 22.9545C69.0552 23.5606 68.9169 24.2992 68.9169 25.1705C68.9169 26.0492 69.0552 26.7936 69.3317 27.4034C69.6082 28.0133 69.9927 28.4773 70.4851 28.7955C70.9775 29.1098 71.5495 29.267 72.201 29.267C72.7919 29.267 73.3033 29.1534 73.7351 28.9261C74.1707 28.6989 74.5059 28.3769 74.7408 27.9602C74.9756 27.5398 75.093 27.0473 75.093 26.483L75.5703 26.5568H72.4112V24.9091H77.1328V26.3068C77.1328 27.303 76.9207 28.1648 76.4964 28.892C76.0722 29.6193 75.4889 30.1799 74.7464 30.5739C74.004 30.964 73.1518 31.1591 72.1896 31.1591C71.1177 31.1591 70.1764 30.9186 69.3658 30.4375C68.5589 29.9527 67.9283 29.2652 67.4737 28.375C67.023 27.4811 66.7976 26.4205 66.7976 25.1932C66.7976 24.2538 66.9302 23.4148 67.1953 22.6761C67.4643 21.9375 67.8393 21.3106 68.3203 20.7955C68.8014 20.2765 69.3658 19.8826 70.0135 19.6136C70.6612 19.3409 71.3658 19.2045 72.1271 19.2045C72.7711 19.2045 73.3714 19.2992 73.9283 19.4886C74.4851 19.6742 74.9794 19.9394 75.4112 20.2841C75.8468 20.6288 76.2048 21.0379 76.4851 21.5114C76.7654 21.9848 76.9491 22.5076 77.0362 23.0795H74.8885ZM79.1712 31V19.3636H86.7393V21.1307H81.2791V24.2898H86.3473V26.0568H81.2791V29.233H86.7848V31H79.1712ZM98.4524 19.3636V31H96.5774L91.0945 23.0739H90.9979V31H88.8899V19.3636H90.7763L96.2536 27.2955H96.3558V19.3636H98.4524ZM100.749 31V19.3636H108.317V21.1307H102.857V24.2898H107.925V26.0568H102.857V29.233H108.363V31H100.749ZM110.468 31V19.3636H114.832C115.726 19.3636 116.476 19.5189 117.082 19.8295C117.692 20.1402 118.152 20.5758 118.462 21.1364C118.777 21.6932 118.934 22.3428 118.934 23.0852C118.934 23.8314 118.775 24.4792 118.457 25.0284C118.142 25.5739 117.678 25.9962 117.065 26.2955C116.451 26.5909 115.697 26.7386 114.803 26.7386H111.695V24.9886H114.519C115.042 24.9886 115.47 24.9167 115.803 24.7727C116.137 24.625 116.383 24.411 116.542 24.1307C116.705 23.8466 116.786 23.4981 116.786 23.0852C116.786 22.6723 116.705 22.3201 116.542 22.0284C116.379 21.733 116.131 21.5095 115.798 21.358C115.464 21.2027 115.034 21.125 114.508 21.125H112.576V31H110.468ZM116.479 25.7273L119.36 31H117.008L114.178 25.7273H116.479ZM122.369 31H120.119L124.215 19.3636H126.817L130.92 31H128.67L125.562 21.75H125.471L122.369 31ZM122.442 26.4375H128.579V28.1307H122.442V26.4375ZM132.452 31V19.3636H136.816C137.71 19.3636 138.46 19.5189 139.066 19.8295C139.676 20.1402 140.136 20.5758 140.447 21.1364C140.761 21.6932 140.918 22.3428 140.918 23.0852C140.918 23.8314 140.759 24.4792 140.441 25.0284C140.127 25.5739 139.663 25.9962 139.049 26.2955C138.435 26.5909 137.682 26.7386 136.788 26.7386H133.68V24.9886H136.504C137.026 24.9886 137.454 24.9167 137.788 24.7727C138.121 24.625 138.367 24.411 138.526 24.1307C138.689 23.8466 138.771 23.4981 138.771 23.0852C138.771 22.6723 138.689 22.3201 138.526 22.0284C138.363 21.733 138.115 21.5095 137.782 21.358C137.449 21.2027 137.019 21.125 136.492 21.125H134.56V31H132.452ZM138.464 25.7273L141.344 31H138.992L136.163 25.7273H138.464ZM157.225 25.1818C157.225 26.4356 156.99 27.5095 156.521 28.4034C156.055 29.2936 155.418 29.9754 154.612 30.4489C153.808 30.9223 152.897 31.1591 151.879 31.1591C150.86 31.1591 149.947 30.9223 149.14 30.4489C148.337 29.9716 147.701 29.2879 147.231 28.3977C146.765 27.5038 146.532 26.4318 146.532 25.1818C146.532 23.928 146.765 22.8561 147.231 21.9659C147.701 21.072 148.337 20.3883 149.14 19.9148C149.947 19.4413 150.86 19.2045 151.879 19.2045C152.897 19.2045 153.808 19.4413 154.612 19.9148C155.418 20.3883 156.055 21.072 156.521 21.9659C156.99 22.8561 157.225 23.928 157.225 25.1818ZM155.106 25.1818C155.106 24.2992 154.968 23.5549 154.691 22.9489C154.418 22.339 154.04 21.8788 153.555 21.5682C153.07 21.2538 152.511 21.0966 151.879 21.0966C151.246 21.0966 150.687 21.2538 150.202 21.5682C149.718 21.8788 149.337 22.339 149.06 22.9489C148.788 23.5549 148.651 24.2992 148.651 25.1818C148.651 26.0644 148.788 26.8106 149.06 27.4205C149.337 28.0265 149.718 28.4867 150.202 28.8011C150.687 29.1117 151.246 29.267 151.879 29.267C152.511 29.267 153.07 29.1117 153.555 28.8011C154.04 28.4867 154.418 28.0265 154.691 27.4205C154.968 26.8106 155.106 26.0644 155.106 25.1818ZM159.218 31V19.3636H163.582C164.476 19.3636 165.226 19.5189 165.832 19.8295C166.442 20.1402 166.902 20.5758 167.212 21.1364C167.527 21.6932 167.684 22.3428 167.684 23.0852C167.684 23.8314 167.525 24.4792 167.207 25.0284C166.892 25.5739 166.428 25.9962 165.815 26.2955C165.201 26.5909 164.447 26.7386 163.553 26.7386H160.445V24.9886H163.269C163.792 24.9886 164.22 24.9167 164.553 24.7727C164.887 24.625 165.133 24.411 165.292 24.1307C165.455 23.8466 165.536 23.4981 165.536 23.0852C165.536 22.6723 165.455 22.3201 165.292 22.0284C165.129 21.733 164.881 21.5095 164.548 21.358C164.214 21.2027 163.784 21.125 163.258 21.125H161.326V31H159.218ZM165.229 25.7273L168.11 31H165.758L162.928 25.7273H165.229ZM173.567 31H169.624V19.3636H173.647C174.802 19.3636 175.795 19.5966 176.624 20.0625C177.458 20.5246 178.098 21.1894 178.545 22.0568C178.992 22.9242 179.215 23.9621 179.215 25.1705C179.215 26.3826 178.99 27.4242 178.539 28.2955C178.092 29.1667 177.446 29.8352 176.602 30.3011C175.761 30.767 174.749 31 173.567 31ZM171.732 29.1761H173.465C174.276 29.1761 174.952 29.0284 175.494 28.733C176.035 28.4337 176.442 27.9886 176.715 27.3977C176.988 26.803 177.124 26.0606 177.124 25.1705C177.124 24.2803 176.988 23.5417 176.715 22.9545C176.442 22.3636 176.039 21.9223 175.505 21.6307C174.975 21.3352 174.316 21.1875 173.528 21.1875H171.732V29.1761ZM181.218 31V19.3636H188.786V21.1307H183.326V24.2898H188.394V26.0568H183.326V29.233H188.832V31H181.218ZM200.499 19.3636V31H198.624L193.141 23.0739H193.045V31H190.937V19.3636H192.823L198.3 27.2955H198.403V19.3636H200.499ZM210.708 31H206.765V19.3636H210.788C211.943 19.3636 212.935 19.5966 213.765 20.0625C214.598 20.5246 215.238 21.1894 215.685 22.0568C216.132 22.9242 216.356 23.9621 216.356 25.1705C216.356 26.3826 216.13 27.4242 215.68 28.2955C215.233 29.1667 214.587 29.8352 213.742 30.3011C212.901 30.767 211.89 31 210.708 31ZM208.873 29.1761H210.606C211.416 29.1761 212.093 29.0284 212.634 28.733C213.176 28.4337 213.583 27.9886 213.856 27.3977C214.129 26.803 214.265 26.0606 214.265 25.1705C214.265 24.2803 214.129 23.5417 213.856 22.9545C213.583 22.3636 213.18 21.9223 212.646 21.6307C212.115 21.3352 211.456 21.1875 210.668 21.1875H208.873V29.1761ZM218.359 31V19.3636H225.927V21.1307H220.467V24.2898H225.535V26.0568H220.467V29.233H225.972V31H218.359ZM242.006 23.2898H239.881C239.821 22.9413 239.709 22.6326 239.546 22.3636C239.383 22.0909 239.181 21.8598 238.938 21.6705C238.696 21.4811 238.419 21.339 238.109 21.2443C237.802 21.1458 237.47 21.0966 237.114 21.0966C236.482 21.0966 235.921 21.2557 235.433 21.5739C234.944 21.8883 234.561 22.3504 234.285 22.9602C234.008 23.5663 233.87 24.3068 233.87 25.1818C233.87 26.072 234.008 26.822 234.285 27.4318C234.565 28.0379 234.948 28.4962 235.433 28.8068C235.921 29.1136 236.48 29.267 237.109 29.267C237.457 29.267 237.783 29.2216 238.086 29.1307C238.393 29.036 238.667 28.8977 238.91 28.7159C239.156 28.5341 239.362 28.3106 239.529 28.0455C239.7 27.7803 239.817 27.4773 239.881 27.1364L242.006 27.1477C241.927 27.7008 241.754 28.2197 241.489 28.7045C241.228 29.1894 240.885 29.6174 240.461 29.9886C240.037 30.3561 239.54 30.6439 238.972 30.8523C238.404 31.0568 237.773 31.1591 237.08 31.1591C236.058 31.1591 235.145 30.9223 234.342 30.4489C233.539 29.9754 232.906 29.2917 232.444 28.3977C231.982 27.5038 231.751 26.4318 231.751 25.1818C231.751 23.928 231.984 22.8561 232.45 21.9659C232.915 21.072 233.55 20.3883 234.353 19.9148C235.156 19.4413 236.065 19.2045 237.08 19.2045C237.728 19.2045 238.33 19.2955 238.887 19.4773C239.444 19.6591 239.94 19.9261 240.376 20.2784C240.811 20.6269 241.169 21.0549 241.45 21.5625C241.734 22.0663 241.919 22.642 242.006 23.2898ZM254.335 25.1818C254.335 26.4356 254.1 27.5095 253.63 28.4034C253.164 29.2936 252.528 29.9754 251.721 30.4489C250.918 30.9223 250.007 31.1591 248.988 31.1591C247.969 31.1591 247.056 30.9223 246.249 30.4489C245.446 29.9716 244.81 29.2879 244.34 28.3977C243.874 27.5038 243.641 26.4318 243.641 25.1818C243.641 23.928 243.874 22.8561 244.34 21.9659C244.81 21.072 245.446 20.3883 246.249 19.9148C247.056 19.4413 247.969 19.2045 248.988 19.2045C250.007 19.2045 250.918 19.4413 251.721 19.9148C252.528 20.3883 253.164 21.072 253.63 21.9659C254.1 22.8561 254.335 23.928 254.335 25.1818ZM252.215 25.1818C252.215 24.2992 252.077 23.5549 251.8 22.9489C251.528 22.339 251.149 21.8788 250.664 21.5682C250.179 21.2538 249.621 21.0966 248.988 21.0966C248.355 21.0966 247.797 21.2538 247.312 21.5682C246.827 21.8788 246.446 22.339 246.17 22.9489C245.897 23.5549 245.761 24.2992 245.761 25.1818C245.761 26.0644 245.897 26.8106 246.17 27.4205C246.446 28.0265 246.827 28.4867 247.312 28.8011C247.797 29.1117 248.355 29.267 248.988 29.267C249.621 29.267 250.179 29.1117 250.664 28.8011C251.149 28.4867 251.528 28.0265 251.8 27.4205C252.077 26.8106 252.215 26.0644 252.215 25.1818ZM265.89 19.3636V31H264.015L258.532 23.0739H258.435V31H256.327V19.3636H258.214L263.691 27.2955H263.793V19.3636H265.89ZM274.511 22.5625C274.458 22.0663 274.234 21.6799 273.84 21.4034C273.45 21.1269 272.942 20.9886 272.317 20.9886C271.878 20.9886 271.501 21.0549 271.187 21.1875C270.872 21.3201 270.632 21.5 270.465 21.7273C270.299 21.9545 270.213 22.214 270.21 22.5057C270.21 22.7481 270.264 22.9583 270.374 23.1364C270.488 23.3144 270.641 23.4659 270.835 23.5909C271.028 23.7121 271.242 23.8144 271.477 23.8977C271.711 23.9811 271.948 24.0511 272.187 24.108L273.278 24.3807C273.717 24.483 274.139 24.6212 274.545 24.7955C274.954 24.9697 275.319 25.1894 275.641 25.4545C275.967 25.7197 276.225 26.0398 276.414 26.4148C276.603 26.7898 276.698 27.2292 276.698 27.733C276.698 28.4148 276.524 29.0152 276.175 29.5341C275.827 30.0492 275.323 30.4527 274.664 30.7443C274.009 31.0322 273.215 31.1761 272.283 31.1761C271.378 31.1761 270.592 31.036 269.925 30.7557C269.263 30.4754 268.744 30.0663 268.369 29.5284C267.997 28.9905 267.797 28.3352 267.766 27.5625H269.84C269.871 27.9678 269.996 28.3049 270.215 28.5739C270.435 28.8428 270.721 29.0436 271.073 29.1761C271.429 29.3087 271.827 29.375 272.266 29.375C272.725 29.375 273.126 29.3068 273.471 29.1705C273.819 29.0303 274.092 28.8371 274.289 28.5909C274.486 28.3409 274.586 28.0492 274.59 27.7159C274.586 27.4129 274.497 27.1629 274.323 26.9659C274.149 26.7652 273.905 26.5985 273.59 26.4659C273.28 26.3295 272.916 26.2083 272.499 26.1023L271.175 25.7614C270.217 25.5152 269.46 25.142 268.903 24.642C268.35 24.1383 268.073 23.4697 268.073 22.6364C268.073 21.9508 268.259 21.3504 268.63 20.8352C269.005 20.3201 269.514 19.9205 270.158 19.6364C270.802 19.3485 271.531 19.2045 272.346 19.2045C273.172 19.2045 273.895 19.3485 274.516 19.6364C275.141 19.9205 275.632 20.3163 275.988 20.8239C276.344 21.3277 276.528 21.9072 276.539 22.5625H274.511ZM285.913 19.3636H288.021V26.9659C288.021 27.7992 287.824 28.5322 287.43 29.1648C287.04 29.7973 286.49 30.2917 285.782 30.6477C285.074 31 284.246 31.1761 283.299 31.1761C282.348 31.1761 281.519 31 280.81 30.6477C280.102 30.2917 279.553 29.7973 279.163 29.1648C278.772 28.5322 278.577 27.7992 278.577 26.9659V19.3636H280.685V26.7898C280.685 27.2746 280.791 27.7064 281.004 28.0852C281.219 28.464 281.522 28.7614 281.913 28.9773C282.303 29.1894 282.765 29.2955 283.299 29.2955C283.833 29.2955 284.295 29.1894 284.685 28.9773C285.079 28.7614 285.382 28.464 285.594 28.0852C285.807 27.7064 285.913 27.2746 285.913 26.7898V19.3636ZM290.312 19.3636H292.891L296.346 27.7955H296.482L299.937 19.3636H302.516V31H300.494V23.0057H300.386L297.17 30.9659H295.658L292.442 22.9886H292.335V31H290.312V19.3636ZM315.21 25.1818C315.21 26.4356 314.975 27.5095 314.505 28.4034C314.039 29.2936 313.403 29.9754 312.596 30.4489C311.793 30.9223 310.882 31.1591 309.863 31.1591C308.844 31.1591 307.931 30.9223 307.124 30.4489C306.321 29.9716 305.685 29.2879 305.215 28.3977C304.749 27.5038 304.516 26.4318 304.516 25.1818C304.516 23.928 304.749 22.8561 305.215 21.9659C305.685 21.072 306.321 20.3883 307.124 19.9148C307.931 19.4413 308.844 19.2045 309.863 19.2045C310.882 19.2045 311.793 19.4413 312.596 19.9148C313.403 20.3883 314.039 21.072 314.505 21.9659C314.975 22.8561 315.21 23.928 315.21 25.1818ZM313.09 25.1818C313.09 24.2992 312.952 23.5549 312.675 22.9489C312.403 22.339 312.024 21.8788 311.539 21.5682C311.054 21.2538 310.496 21.0966 309.863 21.0966C309.23 21.0966 308.672 21.2538 308.187 21.5682C307.702 21.8788 307.321 22.339 307.045 22.9489C306.772 23.5549 306.636 24.2992 306.636 25.1818C306.636 26.0644 306.772 26.8106 307.045 27.4205C307.321 28.0265 307.702 28.4867 308.187 28.8011C308.672 29.1117 309.23 29.267 309.863 29.267C310.496 29.267 311.054 29.1117 311.539 28.8011C312.024 28.4867 312.403 28.0265 312.675 27.4205C312.952 26.8106 313.09 26.0644 313.09 25.1818Z" fill="white"/>
</g>
<defs>
<filter id="filter0_d_149_1123" x="0.0852342" y="0" width="331.83" height="63.8295" filterUnits="userSpaceOnUse" color-interpolation-filters="sRGB">
<feFlood flood-opacity="0" result="BackgroundImageFix"/>
<feColorMatrix in="SourceAlpha" type="matrix" values="0 0 0 0 0 0 0 0 0 0 0 0 0 0 0 0 0 0 127 0" result="hardAlpha"/>
<feOffset dy="6.91477"/>
<feGaussianBlur stdDeviation="3.45738"/>
<feComposite in2="hardAlpha" operator="out"/>
<feColorMatrix type="matrix" values="0 0 0 0 0 0 0 0 0 0 0 0 0 0 0 0 0 0 0.25 0"/>
<feBlend mode="normal" in2="BackgroundImageFix" result="effect1_dropShadow_149_1123"/>
<feBlend mode="normal" in="SourceGraphic" in2="effect1_dropShadow_149_1123" result="shape"/>
</filter>
</defs>
</svg>
