<svg width="225" height="32" viewBox="0 0 225 32" fill="none" xmlns="http://www.w3.org/2000/svg">
<rect x="0.818359" width="224" height="32" rx="10" fill="#2BC155"/>
<path d="M33.6783 7.64796L46.2477 6.00464C46.3186 5.99532 46.3909 6.00008 46.4597 6.01858C46.5284 6.03708 46.592 6.0689 46.6462 6.11187C46.7003 6.15485 46.7438 6.20798 46.7735 6.26767C46.8033 6.32735 46.8187 6.3922 46.8187 6.45781V25.5423C46.8186 25.6078 46.8033 25.6726 46.7736 25.7322C46.7439 25.7918 46.7005 25.8449 46.6465 25.8879C46.5925 25.9308 46.529 25.9627 46.4604 25.9812C46.3917 25.9998 46.3195 26.0047 46.2487 25.9955L33.6773 24.3522C33.4389 24.3211 33.2208 24.2123 33.063 24.0458C32.9052 23.8793 32.8184 23.6663 32.8184 23.4458V8.55431C32.8184 8.33387 32.9052 8.12083 33.063 7.95433C33.2208 7.78783 33.4389 7.67904 33.6773 7.64796H33.6783ZM34.8193 9.34896V22.6512L44.8188 23.9594V8.04071L34.8193 9.34896ZM47.8186 22.4086H50.8185V9.59157H47.8186V7.76057H51.8184C52.0836 7.76057 52.338 7.85702 52.5255 8.02871C52.713 8.2004 52.8184 8.43326 52.8184 8.67607V23.3241C52.8184 23.5669 52.713 23.7997 52.5255 23.9714C52.338 24.1431 52.0836 24.2396 51.8184 24.2396H47.8186V22.4086ZM41.0189 16.0001L43.8188 19.6621H41.4189L39.819 17.5692L38.2191 19.6621H35.8192L38.6191 16.0001L35.8192 12.3381H38.2191L39.819 14.4309L41.4189 12.3381H43.8188L41.0189 16.0001Z" fill="white"/>
<path d="M77.1919 14.2898H75.0669C75.0063 13.9413 74.8946 13.6326 74.7317 13.3636C74.5688 13.0909 74.3662 12.8598 74.1238 12.6705C73.8813 12.4811 73.6048 12.339 73.2942 12.2443C72.9874 12.1458 72.656 12.0966 72.2999 12.0966C71.6673 12.0966 71.1067 12.2557 70.6181 12.5739C70.1294 12.8883 69.7469 13.3504 69.4703 13.9602C69.1938 14.5663 69.0556 15.3068 69.0556 16.1818C69.0556 17.072 69.1938 17.822 69.4703 18.4318C69.7507 19.0379 70.1332 19.4962 70.6181 19.8068C71.1067 20.1136 71.6654 20.267 72.2942 20.267C72.6427 20.267 72.9685 20.2216 73.2715 20.1307C73.5783 20.036 73.8529 19.8977 74.0953 19.7159C74.3416 19.5341 74.548 19.3106 74.7147 19.0455C74.8851 18.7803 75.0025 18.4773 75.0669 18.1364L77.1919 18.1477C77.1124 18.7008 76.94 19.2197 76.6749 19.7045C76.4135 20.1894 76.0707 20.6174 75.6465 20.9886C75.2222 21.3561 74.726 21.6439 74.1578 21.8523C73.5897 22.0568 72.959 22.1591 72.2658 22.1591C71.2431 22.1591 70.3302 21.9223 69.5272 21.4489C68.7241 20.9754 68.0916 20.2917 67.6294 19.3977C67.1673 18.5038 66.9363 17.4318 66.9363 16.1818C66.9363 14.928 67.1692 13.8561 67.6351 12.9659C68.101 12.072 68.7355 11.3883 69.5385 10.9148C70.3416 10.4413 71.2507 10.2045 72.2658 10.2045C72.9135 10.2045 73.5158 10.2955 74.0726 10.4773C74.6294 10.6591 75.1257 10.9261 75.5613 11.2784C75.9969 11.6269 76.3548 12.0549 76.6351 12.5625C76.9192 13.0663 77.1048 13.642 77.1919 14.2898ZM80.476 22H78.226L82.3226 10.3636H84.9249L89.0272 22H86.7772L83.6692 12.75H83.5783L80.476 22ZM80.5499 17.4375H86.6863V19.1307H80.5499V17.4375ZM90.5598 22V10.3636H94.9235C95.8174 10.3636 96.5674 10.5189 97.1735 10.8295C97.7833 11.1402 98.2435 11.5758 98.5542 12.1364C98.8685 12.6932 99.0257 13.3428 99.0257 14.0852C99.0257 14.8314 98.8667 15.4792 98.5485 16.0284C98.2341 16.5739 97.7701 16.9962 97.1564 17.2955C96.5428 17.5909 95.789 17.7386 94.8951 17.7386H91.7871V15.9886H94.611C95.1337 15.9886 95.5617 15.9167 95.8951 15.7727C96.2284 15.625 96.4746 15.411 96.6337 15.1307C96.7966 14.8466 96.878 14.4981 96.878 14.0852C96.878 13.6723 96.7966 13.3201 96.6337 13.0284C96.4708 12.733 96.2227 12.5095 95.8894 12.358C95.556 12.2027 95.1261 12.125 94.5996 12.125H92.6678V22H90.5598ZM96.5712 16.7273L99.4519 22H97.0996L94.2701 16.7273H96.5712ZM108.762 14.0795C108.667 13.7727 108.536 13.4981 108.369 13.2557C108.207 13.0095 108.01 12.7992 107.779 12.625C107.551 12.4508 107.29 12.3201 106.994 12.233C106.699 12.142 106.377 12.0966 106.029 12.0966C105.404 12.0966 104.847 12.2538 104.358 12.5682C103.869 12.8826 103.485 13.3447 103.205 13.9545C102.928 14.5606 102.79 15.2992 102.79 16.1705C102.79 17.0492 102.928 17.7936 103.205 18.4034C103.481 19.0133 103.866 19.4773 104.358 19.7955C104.851 20.1098 105.423 20.267 106.074 20.267C106.665 20.267 107.176 20.1534 107.608 19.9261C108.044 19.6989 108.379 19.3769 108.614 18.9602C108.849 18.5398 108.966 18.0473 108.966 17.483L109.443 17.5568H106.284V15.9091H111.006V17.3068C111.006 18.303 110.794 19.1648 110.369 19.892C109.945 20.6193 109.362 21.1799 108.619 21.5739C107.877 21.964 107.025 22.1591 106.063 22.1591C104.991 22.1591 104.049 21.9186 103.239 21.4375C102.432 20.9527 101.801 20.2652 101.347 19.375C100.896 18.4811 100.671 17.4205 100.671 16.1932C100.671 15.2538 100.803 14.4148 101.068 13.6761C101.337 12.9375 101.712 12.3106 102.193 11.7955C102.674 11.2765 103.239 10.8826 103.887 10.6136C104.534 10.3409 105.239 10.2045 106 10.2045C106.644 10.2045 107.244 10.2992 107.801 10.4886C108.358 10.6742 108.852 10.9394 109.284 11.2841C109.72 11.6288 110.078 12.0379 110.358 12.5114C110.638 12.9848 110.822 13.5076 110.909 14.0795H108.762ZM114.179 22H111.929L116.026 10.3636H118.628L122.73 22H120.48L117.372 12.75H117.281L114.179 22ZM114.253 17.4375H120.389V19.1307H114.253V17.4375ZM128.232 10.3636H130.811L134.266 18.7955H134.402L137.857 10.3636H140.436V22H138.414V14.0057H138.306L135.09 21.9659H133.578L130.362 13.9886H130.254V22H128.232V10.3636ZM144.226 22H141.976L146.073 10.3636H148.675L152.777 22H150.527L147.419 12.75H147.328L144.226 22ZM144.3 17.4375H150.436V19.1307H144.3V17.4375ZM160.446 13.5625C160.393 13.0663 160.17 12.6799 159.776 12.4034C159.386 12.1269 158.878 11.9886 158.253 11.9886C157.814 11.9886 157.437 12.0549 157.122 12.1875C156.808 12.3201 156.567 12.5 156.401 12.7273C156.234 12.9545 156.149 13.214 156.145 13.5057C156.145 13.7481 156.2 13.9583 156.31 14.1364C156.423 14.3144 156.577 14.4659 156.77 14.5909C156.963 14.7121 157.177 14.8144 157.412 14.8977C157.647 14.9811 157.884 15.0511 158.122 15.108L159.213 15.3807C159.653 15.483 160.075 15.6212 160.48 15.7955C160.889 15.9697 161.255 16.1894 161.577 16.4545C161.903 16.7197 162.16 17.0398 162.35 17.4148C162.539 17.7898 162.634 18.2292 162.634 18.733C162.634 19.4148 162.459 20.0152 162.111 20.5341C161.762 21.0492 161.259 21.4527 160.6 21.7443C159.944 22.0322 159.151 22.1761 158.219 22.1761C157.314 22.1761 156.528 22.036 155.861 21.7557C155.198 21.4754 154.679 21.0663 154.304 20.5284C153.933 19.9905 153.732 19.3352 153.702 18.5625H155.776C155.806 18.9678 155.931 19.3049 156.151 19.5739C156.37 19.8428 156.656 20.0436 157.009 20.1761C157.365 20.3087 157.762 20.375 158.202 20.375C158.66 20.375 159.062 20.3068 159.406 20.1705C159.755 20.0303 160.028 19.8371 160.225 19.5909C160.422 19.3409 160.522 19.0492 160.526 18.7159C160.522 18.4129 160.433 18.1629 160.259 17.9659C160.084 17.7652 159.84 17.5985 159.526 17.4659C159.215 17.3295 158.852 17.2083 158.435 17.1023L157.111 16.7614C156.153 16.5152 155.395 16.142 154.838 15.642C154.285 15.1383 154.009 14.4697 154.009 13.6364C154.009 12.9508 154.194 12.3504 154.566 11.8352C154.941 11.3201 155.45 10.9205 156.094 10.6364C156.738 10.3485 157.467 10.2045 158.281 10.2045C159.107 10.2045 159.831 10.3485 160.452 10.6364C161.077 10.9205 161.567 11.3163 161.923 11.8239C162.28 12.3277 162.463 12.9072 162.475 13.5625H160.446ZM166.621 10.3636V22H164.513V10.3636H166.621ZM170.46 10.3636L173.489 19.5227H173.608L176.631 10.3636H178.949L174.847 22H172.244L168.148 10.3636H170.46ZM180.617 22H178.367L182.463 10.3636H185.066L189.168 22H186.918L183.81 12.75H183.719L180.617 22ZM180.691 17.4375H186.827V19.1307H180.691V17.4375Z" fill="white"/>
</svg>
