<svg width="177" height="32" viewBox="0 0 177 32" fill="none" xmlns="http://www.w3.org/2000/svg">
<rect width="176.818" height="32" rx="10" fill="#2BC155"/>
<path d="M38.5669 23.9091V8.09094H41.2512V23.9091H38.5669ZM32 17.3422V14.6579H47.8182V17.3422H32Z" fill="white"/>
<path d="M73.2573 22H71.0073L75.1039 10.3636H77.7061L81.8084 22H79.5584L76.4505 12.75H76.3596L73.2573 22ZM73.3311 17.4375H79.4675V19.1307H73.3311V17.4375ZM92.9036 10.3636V22H91.0286L85.5456 14.0739H85.449V22H83.3411V10.3636H85.2275L90.7047 18.2955H90.807V10.3636H92.9036ZM86.4547 9.30114L85.2104 9.27273C85.2104 8.59848 85.3846 8.07008 85.7331 7.6875C86.0816 7.30492 86.5115 7.11364 87.0229 7.11364C87.2691 7.11364 87.4831 7.1553 87.665 7.23864C87.8468 7.31818 88.0134 7.41098 88.165 7.51705C88.3203 7.62311 88.4718 7.7178 88.6195 7.80114C88.7672 7.88068 88.9301 7.92045 89.1081 7.92045C89.324 7.92045 89.4945 7.83901 89.6195 7.67614C89.7483 7.51326 89.8146 7.30492 89.8184 7.05114L91.04 7.10227C91.0362 7.7803 90.86 8.30682 90.5115 8.68182C90.1631 9.05303 89.735 9.24053 89.2275 9.24432C88.9547 9.24811 88.7256 9.20833 88.54 9.125C88.3543 9.04167 88.1915 8.94697 88.0513 8.84091C87.915 8.73485 87.7767 8.64205 87.6365 8.5625C87.4964 8.47917 87.3316 8.4375 87.1422 8.4375C86.9415 8.4375 86.7767 8.51705 86.6479 8.67614C86.5191 8.83523 86.4547 9.04356 86.4547 9.30114ZM96.6948 22H94.4448L98.5414 10.3636H101.144L105.246 22H102.996L99.888 12.75H99.7971L96.6948 22ZM96.7686 17.4375H102.905V19.1307H96.7686V17.4375ZM110.722 22H106.779V10.3636H110.801C111.957 10.3636 112.949 10.5966 113.779 11.0625C114.612 11.5246 115.252 12.1894 115.699 13.0568C116.146 13.9242 116.369 14.9621 116.369 16.1705C116.369 17.3826 116.144 18.4242 115.693 19.2955C115.246 20.1667 114.601 20.8352 113.756 21.3011C112.915 21.767 111.904 22 110.722 22ZM108.887 20.1761H110.619C111.43 20.1761 112.106 20.0284 112.648 19.733C113.19 19.4337 113.597 18.9886 113.869 18.3977C114.142 17.803 114.279 17.0606 114.279 16.1705C114.279 15.2803 114.142 14.5417 113.869 13.9545C113.597 13.3636 113.193 12.9223 112.659 12.6307C112.129 12.3352 111.47 12.1875 110.682 12.1875H108.887V20.1761ZM120.48 10.3636V22H118.372V10.3636H120.48ZM122.763 22V10.3636H127.127C128.021 10.3636 128.771 10.5189 129.377 10.8295C129.986 11.1402 130.447 11.5758 130.757 12.1364C131.072 12.6932 131.229 13.3428 131.229 14.0852C131.229 14.8314 131.07 15.4792 130.752 16.0284C130.437 16.5739 129.973 16.9962 129.36 17.2955C128.746 17.5909 127.992 17.7386 127.098 17.7386H123.99V15.9886H126.814C127.337 15.9886 127.765 15.9167 128.098 15.7727C128.432 15.625 128.678 15.411 128.837 15.1307C129 14.8466 129.081 14.4981 129.081 14.0852C129.081 13.6723 129 13.3201 128.837 13.0284C128.674 12.733 128.426 12.5095 128.093 12.358C127.759 12.2027 127.329 12.125 126.803 12.125H124.871V22H122.763ZM128.774 16.7273L131.655 22H129.303L126.473 16.7273H128.774Z" fill="white"/>
</svg>
