<svg width="61" height="78" viewBox="0 0 61 78" fill="none" xmlns="http://www.w3.org/2000/svg">
<path fill-rule="evenodd" clip-rule="evenodd" d="M46.6771 9.15862H54.8589C56.3056 9.15862 57.693 9.7333 58.7159 10.7562C59.7388 11.7792 60.3135 13.1665 60.3135 14.6132V71.8859C60.3135 73.3325 59.7388 74.7199 58.7159 75.7428C57.693 76.7658 56.3056 77.3404 54.8589 77.3404H5.76802C4.32139 77.3404 2.934 76.7658 1.91108 75.7428C0.88815 74.7199 0.313477 73.3325 0.313477 71.8859V14.6132C0.313477 13.1665 0.88815 11.7792 1.91108 10.7562C2.934 9.7333 4.32139 9.15862 5.76802 9.15862H13.9498V6.43135C13.9498 4.98472 14.5245 3.59733 15.5474 2.57441C16.5704 1.55148 17.9578 0.976807 19.4044 0.976807H41.2226C42.6692 0.976807 44.0566 1.55148 45.0795 2.57441C46.1024 3.59733 46.6771 4.98472 46.6771 6.43135V9.15862ZM41.2226 6.43135H19.4044V17.3404H41.2226V6.43135ZM5.76802 71.8859H54.8589V14.6132H46.6771V22.795H13.9498V14.6132H5.76802V71.8859ZM46.677 30.9768H13.9498V36.4314H46.677V30.9768ZM35.768 44.6131H13.9498V50.0677H35.768V44.6131ZM13.9498 58.2496H27.5861V63.7041H13.9498V58.2496Z" fill="#2BC155"/>
</svg>
