<svg width="30" height="30" viewBox="0 0 30 30" fill="none" xmlns="http://www.w3.org/2000/svg">
<path fill-rule="evenodd" clip-rule="evenodd" d="M7.89529 29.296C8.47754 29.7393 9.18816 29.9814 9.92004 29.9857C10.1145 30.0048 10.3105 30.0048 10.505 29.9857C10.9594 29.9097 11.3935 29.7414 11.7804 29.4913C12.1673 29.2412 12.4989 28.9145 12.7547 28.5314L13.0996 28.0366C13.3416 27.6897 13.6618 27.4044 14.0344 27.2039C14.4069 27.0033 14.8214 26.8931 15.2444 26.8822C15.6877 26.8713 16.1265 26.9728 16.5199 27.1773C16.9133 27.3818 17.2484 27.6826 17.4941 28.0516L17.6741 28.3065C17.9298 28.6869 18.2607 29.011 18.6464 29.2588C19.0322 29.5066 19.4646 29.6728 19.917 29.7472C20.3694 29.8217 20.8322 29.8028 21.2771 29.6916C21.7219 29.5805 22.1393 29.3796 22.5035 29.1011L25.5181 26.7772C26.238 26.2184 26.7167 25.4054 26.8561 24.5049C26.9955 23.6045 26.7851 22.6849 26.268 21.9345L25.878 21.3648C25.641 21.0038 25.4848 20.5958 25.4201 20.1689C25.3554 19.7419 25.3837 19.306 25.5031 18.891C25.6299 18.4446 25.8644 18.0361 26.1861 17.7015C26.5077 17.3669 26.9067 17.1163 27.3479 16.9719L27.6478 16.867C28.5103 16.56 29.2202 15.9309 29.6285 15.1117C30.0368 14.2926 30.1117 13.3472 29.8375 12.4741L28.6527 8.69586C28.5248 8.2592 28.3102 7.85277 28.0217 7.50081C27.7332 7.14885 27.3768 6.85857 26.9737 6.64729C26.5706 6.43601 26.129 6.30806 25.6754 6.27106C25.2217 6.23406 24.7653 6.28877 24.3332 6.43194L23.8233 6.59686C23.4238 6.72886 22.9983 6.76236 22.5831 6.69448C22.1679 6.62661 21.7752 6.45937 21.4386 6.20704L21.2736 6.0871C20.9451 5.83578 20.6803 5.51081 20.5006 5.1384C20.3208 4.76598 20.2311 4.35655 20.2387 3.94312V3.52332C20.246 2.58181 19.8792 1.67589 19.2189 1.00452C18.9048 0.687351 18.5311 0.435336 18.1193 0.262949C17.7075 0.0905632 17.2656 0.00120271 16.8192 0H12.9947C12.077 0.0118538 11.2013 0.385605 10.558 1.03988C9.91471 1.69415 9.55605 2.57597 9.56008 3.49334V3.85316C9.55864 4.28836 9.45953 4.7177 9.27004 5.10951C9.08055 5.50133 8.80552 5.84565 8.46522 6.11709L8.27024 6.26701C7.89431 6.55131 7.4546 6.73953 6.98934 6.8153C6.52408 6.89107 6.04735 6.85211 5.60058 6.70181C5.19025 6.55986 4.75538 6.50262 4.32228 6.53355C3.88919 6.56447 3.46687 6.68292 3.08089 6.88172C2.66643 7.09415 2.30215 7.39266 2.01245 7.75724C1.72275 8.12182 1.51431 8.54407 1.4011 8.99571L0.171256 12.8939C-0.113945 13.7727 -0.0408044 14.7286 0.374794 15.5539C0.790393 16.3792 1.5149 17.0073 2.39098 17.3018H2.63095C3.03509 17.4531 3.39781 17.6977 3.68968 18.0155C3.98154 18.3333 4.19432 18.7154 4.31074 19.1309L4.40073 19.3708C4.56792 19.8297 4.62383 20.3218 4.56387 20.8066C4.5039 21.2914 4.32977 21.755 4.05577 22.1594C3.53792 22.9056 3.32552 23.8217 3.46219 24.7195C3.59886 25.6173 4.07423 26.4287 4.79068 26.9871L7.89529 29.296ZM5.83695 15.8725C5.21696 15.2215 4.45276 14.725 3.60583 14.4231L3.33586 14.3482C3.204 14.3005 3.09584 14.2035 3.03426 14.0776C2.97268 13.9517 2.96251 13.8068 3.0059 13.6735L4.25075 9.76035C4.28233 9.66652 4.34608 9.58686 4.43072 9.53546C4.49885 9.5126 4.57257 9.5126 4.6407 9.53546C5.55115 9.84566 6.52396 9.92723 7.47339 9.77297C8.42282 9.61871 9.31971 9.23336 10.085 8.65088L10.28 8.50095C10.9894 7.95469 11.5638 7.25291 11.9591 6.4497C12.3543 5.64649 12.5598 4.76329 12.5597 3.86816V3.49334C12.5556 3.43227 12.5637 3.37101 12.5834 3.31306C12.603 3.25511 12.634 3.20161 12.6744 3.15564C12.7148 3.10967 12.7639 3.07213 12.8188 3.04518C12.8738 3.01822 12.9336 3.00238 12.9947 2.99857H16.8042C16.9205 2.99777 17.0329 3.04056 17.1191 3.11851C17.218 3.22396 17.2718 3.36382 17.2691 3.50833V3.97311C17.2685 4.84448 17.47 5.70413 17.8578 6.48454C18.2455 7.26496 18.8089 7.9449 19.5038 8.47096L19.5638 8.6059C20.288 9.1541 21.1345 9.51828 22.0306 9.66715C22.9267 9.81601 23.8456 9.74509 24.7082 9.46049L25.2181 9.29557C25.2623 9.27318 25.3111 9.26151 25.3606 9.26151C25.4101 9.26151 25.4589 9.27318 25.5031 9.29557C25.5698 9.32026 25.6308 9.35825 25.6823 9.40722C25.7339 9.45618 25.775 9.51512 25.8031 9.58044L26.9729 13.3137C27.0222 13.4389 27.0199 13.5786 26.9665 13.7022C26.9131 13.8258 26.813 13.9233 26.6879 13.9733L26.388 14.0783C25.4975 14.384 24.6936 14.899 24.0437 15.5799C23.3938 16.2609 22.917 17.0879 22.6534 17.9914C22.3934 18.8511 22.3299 19.7581 22.4674 20.6456C22.605 21.5331 22.9402 22.3783 23.4483 23.119L23.8383 23.6887C23.9181 23.8014 23.9517 23.9403 23.9321 24.0769C23.9126 24.2136 23.8415 24.3376 23.7333 24.4234L20.6437 26.7623C20.6037 26.7933 20.5579 26.816 20.5089 26.8289C20.4599 26.8418 20.4088 26.8446 20.3587 26.8372C20.2495 26.8129 20.1532 26.7487 20.0888 26.6573L19.9088 26.3874C19.3885 25.6359 18.6937 25.0218 17.884 24.5976C17.0742 24.1733 16.1736 23.9517 15.2594 23.9517C14.3451 23.9517 13.4446 24.1733 12.6348 24.5976C11.825 25.0218 11.1302 25.6359 10.61 26.3874L10.265 26.8822C10.2379 26.9283 10.2013 26.9681 10.1575 26.9989C10.1138 27.0297 10.0639 27.0507 10.0114 27.0607C9.95881 27.0706 9.90473 27.0692 9.85276 27.0565C9.80079 27.0438 9.75214 27.0202 9.71006 26.9871L6.48547 24.5433C6.39061 24.4385 6.33809 24.3023 6.33809 24.161C6.33809 24.0197 6.39061 23.8834 6.48547 23.7787C7.02284 22.9936 7.36566 22.0919 7.48562 21.1482C7.60558 20.2045 7.49924 19.2458 7.17538 18.3513V18.1713C6.91537 17.3109 6.45693 16.5235 5.83695 15.8725ZM12.0888 19.3558C12.9521 19.9324 13.967 20.2401 15.0052 20.2401C16.3974 20.2401 17.7326 19.6873 18.7171 18.7032C19.7015 17.7191 20.2546 16.3843 20.2546 14.9926C20.2546 13.9548 19.9467 12.9402 19.3699 12.0773C18.7931 11.2143 17.9732 10.5417 17.014 10.1446C16.0549 9.74739 14.9994 9.64347 13.9811 9.84595C12.9628 10.0484 12.0275 10.5482 11.2934 11.2821C10.5592 12.016 10.0593 12.951 9.85673 13.9689C9.65418 14.9868 9.75813 16.0419 10.1554 17.0008C10.5528 17.9596 11.2256 18.7792 12.0888 19.3558ZM13.7553 13.1227C14.1253 12.8756 14.5603 12.7437 15.0052 12.7437C15.6019 12.7437 16.1741 12.9806 16.596 13.4024C17.0179 13.8241 17.2549 14.3962 17.2549 14.9926C17.2549 15.4374 17.123 15.8722 16.8758 16.2421C16.6286 16.6119 16.2772 16.9001 15.8661 17.0704C15.4551 17.2406 15.0027 17.2851 14.5663 17.1983C14.1299 17.1116 13.729 16.8974 13.4144 16.5829C13.0998 16.2683 12.8855 15.8676 12.7987 15.4314C12.7119 14.9951 12.7565 14.5429 12.9267 14.132C13.097 13.7211 13.3854 13.3698 13.7553 13.1227Z" fill="#2BC155"/>
</svg>
