<svg width="30" height="30" viewBox="0 0 30 30" fill="none" xmlns="http://www.w3.org/2000/svg">
<path d="M14.0625 8.4375C14.0625 8.18886 13.9637 7.9504 13.7879 7.77459C13.6121 7.59877 13.3736 7.5 13.125 7.5C12.8764 7.5 12.6379 7.59877 12.4621 7.77459C12.2863 7.9504 12.1875 8.18886 12.1875 8.4375V12.1875H8.4375C8.18886 12.1875 7.9504 12.2863 7.77459 12.4621C7.59877 12.6379 7.5 12.8764 7.5 13.125C7.5 13.3736 7.59877 13.6121 7.77459 13.7879C7.9504 13.9637 8.18886 14.0625 8.4375 14.0625H12.1875V17.8125C12.1875 18.0611 12.2863 18.2996 12.4621 18.4754C12.6379 18.6512 12.8764 18.75 13.125 18.75C13.3736 18.75 13.6121 18.6512 13.7879 18.4754C13.9637 18.2996 14.0625 18.0611 14.0625 17.8125V14.0625H17.8125C18.0611 14.0625 18.2996 13.9637 18.4754 13.7879C18.6512 13.6121 18.75 13.3736 18.75 13.125C18.75 12.8764 18.6512 12.6379 18.4754 12.4621C18.2996 12.2863 18.0611 12.1875 17.8125 12.1875H14.0625V8.4375ZM4.6875 0C3.4443 0 2.25201 0.49386 1.37294 1.37294C0.49386 2.25201 0 3.4443 0 4.6875V21.5625C0 22.8057 0.49386 23.998 1.37294 24.8771C2.25201 25.7561 3.4443 26.25 4.6875 26.25H21.5625C22.8057 26.25 23.998 25.7561 24.8771 24.8771C25.7561 23.998 26.25 22.8057 26.25 21.5625V4.6875C26.25 3.4443 25.7561 2.25201 24.8771 1.37294C23.998 0.49386 22.8057 0 21.5625 0H4.6875ZM1.875 4.6875C1.875 3.94158 2.17132 3.22621 2.69876 2.69876C3.22621 2.17132 3.94158 1.875 4.6875 1.875H21.5625C22.3084 1.875 23.0238 2.17132 23.5512 2.69876C24.0787 3.22621 24.375 3.94158 24.375 4.6875V21.5625C24.375 22.3084 24.0787 23.0238 23.5512 23.5512C23.0238 24.0787 22.3084 24.375 21.5625 24.375H4.6875C3.94158 24.375 3.22621 24.0787 2.69876 23.5512C2.17132 23.0238 1.875 22.3084 1.875 21.5625V4.6875ZM10.3125 30C8.59445 30.0025 6.94438 29.329 5.71875 28.125H23.4375C24.6807 28.125 25.873 27.6311 26.7521 26.7521C27.6311 25.873 28.125 24.6807 28.125 23.4375V5.71875C29.2856 6.90375 30 8.52375 30 10.3125V23.4375C30 25.178 29.3086 26.8472 28.0779 28.0779C26.8472 29.3086 25.178 30 23.4375 30H10.3125Z" fill="#4D4E4E"/>
</svg>
