<svg width="21" height="20" viewBox="0 0 21 20" fill="none" xmlns="http://www.w3.org/2000/svg">
<path d="M14.4459 13.136L15.5743 12.0076C15.7506 11.8313 16.0574 11.9547 16.0574 12.2086V17.3356C16.0574 18.27 15.2992 19.0282 14.3648 19.0282H1.9528C1.01837 19.0282 0.260254 18.27 0.260254 17.3356V4.9236C0.260254 3.98917 1.01837 3.23105 1.9528 3.23105H11.5968C11.8471 3.23105 11.9741 3.5343 11.7978 3.71413L10.6694 4.8425C10.6165 4.89539 10.546 4.9236 10.4684 4.9236H1.9528V17.3356H14.3648V13.3334C14.3648 13.2594 14.393 13.1889 14.4459 13.136ZM19.9678 6.02023L10.7082 15.2799L7.52057 15.6325C6.59672 15.7347 5.8104 14.9555 5.91265 14.0246L6.26527 10.8369L15.5249 1.57729C16.3324 0.769808 17.6371 0.769808 18.441 1.57729L19.9643 3.10059C20.7718 3.90807 20.7718 5.21627 19.9678 6.02023ZM16.484 7.1098L14.4353 5.06112L7.88376 11.6162L7.62636 13.9188L9.92893 13.6614L16.484 7.1098ZM18.769 4.29947L17.2457 2.77618C17.1011 2.63161 16.8648 2.63161 16.7238 2.77618L15.6342 3.86576L17.6829 5.91444L18.7725 4.82487C18.9135 4.67677 18.9135 4.44404 18.769 4.29947Z" fill="#4D4E4E"/>
</svg>
