<svg width="30" height="30" viewBox="0 0 30 30" fill="none" xmlns="http://www.w3.org/2000/svg">
<path d="M1.28994 2.47194L20.144 0.00695785C20.2504 -0.00701719 20.3588 0.000113224 20.462 0.0278658C20.5651 0.0556184 20.6605 0.103345 20.7417 0.16781C20.823 0.232275 20.8881 0.311973 20.9327 0.401503C20.9774 0.491032 21.0005 0.588301 21.0005 0.686716V29.3135C21.0004 29.4118 20.9774 29.5089 20.9328 29.5983C20.8883 29.6877 20.8233 29.7674 20.7422 29.8318C20.6612 29.8962 20.566 29.944 20.463 29.9719C20.3601 29.9997 20.2518 30.007 20.1455 29.9932L1.28844 27.5283C0.930882 27.4816 0.603708 27.3185 0.367015 27.0687C0.130321 26.819 3.46568e-06 26.4994 0 26.1687V3.83146C3.46568e-06 3.5008 0.130321 3.18124 0.367015 2.93149C0.603708 2.68174 0.930882 2.51856 1.28844 2.47194H1.28994ZM3.00135 5.02344V24.9768L18.0006 26.9391V3.06106L3.00135 5.02344ZM22.5004 24.6128H27.0001V5.38735H22.5004V2.64085H28.5001C28.8979 2.64085 29.2794 2.78553 29.5607 3.04307C29.842 3.3006 30 3.64989 30 4.0141V25.9861C30 26.3503 29.842 26.6996 29.5607 26.9571C29.2794 27.2147 28.8979 27.3593 28.5001 27.3593H22.5004V24.6128ZM12.3009 15.0001L16.5007 20.4931H12.9009L10.501 17.3538L8.1011 20.4931H4.50128L8.70107 15.0001L4.50128 9.5071H8.1011L10.501 12.6463L12.9009 9.5071H16.5007L12.3009 15.0001Z" fill="white"/>
</svg>
